/* XPM */
static char * collect_xpm[] = {
"64 64 310 2",
"  	c #38002C",
". 	c #222A5C",
"+ 	c #37446E",
"@ 	c #006462",
"# 	c #052C46",
"$ 	c #052A44",
"% 	c #04273F",
"& 	c #04253C",
"* 	c #2F3A5F",
"= 	c #313D64",
"- 	c #00615F",
"; 	c #005B59",
"> 	c #005755",
", 	c #005655",
"' 	c #052B44",
") 	c #005A58",
"! 	c #35426A",
"~ 	c #021C2E",
"{ 	c #011322",
"] 	c #011321",
"^ 	c #192038",
"/ 	c #003332",
"( 	c #004443",
"_ 	c #003231",
": 	c #192139",
"< 	c #242D4B",
"[ 	c #3C0600",
"} 	c #641001",
"| 	c #741502",
"1 	c #002B2A",
"2 	c #004B49",
"3 	c #731301",
"4 	c #7B280D",
"5 	c #873C1B",
"6 	c #8C4520",
"7 	c #8D4520",
"8 	c #7A3B19",
"9 	c #4A2105",
"0 	c #010F1C",
"a 	c #28001F",
"b 	c #300025",
"c 	c #000327",
"d 	c #221344",
"e 	c #2B1950",
"f 	c #2D1950",
"g 	c #461745",
"h 	c #641329",
"i 	c #71110A",
"j 	c #711007",
"k 	c #600B07",
"l 	c #350001",
"m 	c #002C2B",
"n 	c #7A3B1B",
"o 	c #4A210C",
"p 	c #621108",
"q 	c #9F2114",
"r 	c #B82819",
"s 	c #001514",
"t 	c #B62618",
"u 	c #C24424",
"v 	c #D56332",
"w 	c #DE7038",
"x 	c #DF7038",
"y 	c #DF7039",
"z 	c #C26130",
"A 	c #793A1A",
"B 	c #00050C",
"C 	c #15000F",
"D 	c #1A0013",
"E 	c #2C1743",
"F 	c #4C2A6F",
"G 	c #563280",
"H 	c #583280",
"I 	c #7A306F",
"J 	c #A52B47",
"K 	c #B72819",
"L 	c #B72715",
"M 	c #001615",
"N 	c #C16030",
"O 	c #661729",
"P 	c #BE3353",
"Q 	c #A62B48",
"R 	c #69172E",
"S 	c #41060F",
"T 	c #631004",
"U 	c #741501",
"V 	c #BD3153",
"W 	c #CE4A4D",
"X 	c #E86642",
"Y 	c #F4723B",
"Z 	c #F5733B",
"` 	c #D76441",
" .	c #8C414A",
"..	c #572B45",
"+.	c #7A3C31",
"@.	c #8D451F",
"#.	c #8C451D",
"$.	c #934A4B",
"%.	c #9D5174",
"&.	c #A15584",
"*.	c #A25585",
"=.	c #B55475",
"-.	c #D2514F",
";.	c #DF502B",
">.	c #E05029",
",.	c #E0502B",
"'.	c #CE4D29",
").	c #A74823",
"!.	c #8B4520",
"~.	c #853B1C",
"{.	c #4B1A44",
"].	c #7B3070",
"^.	c #8F3982",
"/.	c #7D3072",
"(.	c #561A4B",
"_.	c #6A1122",
":.	c #A12119",
"<.	c #B72818",
"[.	c #8D3881",
"}.	c #A94072",
"|.	c #CF4B4D",
"1.	c #E15029",
"2.	c #C7494E",
"3.	c #8D3C71",
"4.	c #8D4972",
"5.	c #C56453",
"6.	c #DF7037",
"7.	c #E07146",
"8.	c #E37359",
"9.	c #E47461",
"0.	c #E97459",
"a.	c #F17347",
"b.	c #F5733A",
"c.	c #F0723A",
"d.	c #E57139",
"e.	c #E07037",
"f.	c #E1512B",
"g.	c #C34524",
"h.	c #7A2813",
"i.	c #341C4E",
"j.	c #58327F",
"k.	c #663B94",
"l.	c #673B94",
"m.	c #5B3282",
"n.	c #471C57",
"o.	c #701739",
"p.	c #A72A49",
"q.	c #643B94",
"r.	c #BD3253",
"s.	c #D22F1E",
"t.	c #D32F1A",
"u.	c #BC3154",
"v.	c #9C4E83",
"w.	c #DA685E",
"x.	c #F57339",
"y.	c #D32F1E",
"z.	c #72150B",
"A.	c #331C4E",
"B.	c #653B94",
"C.	c #5A3282",
"D.	c #591A4E",
"E.	c #7F3071",
"F.	c #8F3981",
"G.	c #623B94",
"H.	c #8C3881",
"I.	c #D12D1D",
"J.	c #D22D19",
"K.	c #944182",
"L.	c #C94B58",
"M.	c #E15028",
"N.	c #E0502A",
"O.	c #E05028",
"P.	c #D22D1E",
"Q.	c #72140B",
"R.	c #5C3281",
"S.	c #481C57",
"T.	c #5D3282",
"U.	c #673C94",
"V.	c #BC3354",
"W.	c #D42F14",
"X.	c #BD3354",
"Y.	c #44174E",
"Z.	c #542A71",
"`.	c #843986",
" +	c #AA346A",
".+	c #BC2F53",
"++	c #BD2C51",
"@+	c #BC2C52",
"#+	c #BC3053",
"$+	c #1C2350",
"%+	c #0D122E",
"&+	c #3C0A3B",
"*+	c #43164D",
"=+	c #723A8F",
"-+	c #833987",
";+	c #79408F",
">+	c #944C88",
",+	c #A2678A",
"'+	c #A38495",
")+	c #9D8195",
"!+	c #935B89",
"~+	c #8D3681",
"{+	c #8C3180",
"]+	c #BC3153",
"^+	c #954C87",
"/+	c #CB6972",
"(+	c #E3987A",
"_+	c #E4C599",
":+	c #DABF98",
"<+	c #C87E73",
"[+	c #FDBA7C",
"}+	c #F8CF8F",
"|+	c #ECBE85",
"1+	c #DB7D56",
"2+	c #D55439",
"3+	c #DB7A54",
"4+	c #DF8C61",
"5+	c #DF8C62",
"6+	c #EAAA74",
"7+	c #DC7C54",
"8+	c #D65336",
"9+	c #EDBE85",
"0+	c #F5D898",
"a+	c #F5D999",
"b+	c #ECBE86",
"c+	c #DD7E56",
"d+	c #D12617",
"e+	c #D22819",
"f+	c #F4D899",
"g+	c #FFF6AE",
"h+	c #FFF7AF",
"i+	c #D11D11",
"j+	c #D22A1B",
"k+	c #FFF8B0",
"l+	c #D32D18",
"m+	c #DC7C56",
"n+	c #D22D1C",
"o+	c #8D3882",
"p+	c #8E3882",
"q+	c #D42F1A",
"r+	c #D32F1D",
"s+	c #D32F1B",
"t+	c #431C55",
"u+	c #3D174B",
"v+	c #4F2A6F",
"w+	c #D42F1B",
"x+	c #BC304A",
"y+	c #873270",
"z+	c #7A3070",
"A+	c #A42B48",
"B+	c #B8281C",
"C+	c #B92820",
"D+	c #B92822",
"E+	c #B92823",
"F+	c #BA2B35",
"G+	c #BD304B",
"H+	c #BE3354",
"I+	c #B92B31",
"J+	c #B82815",
"K+	c #B72717",
"L+	c #D4301E",
"M+	c #593280",
"N+	c #3A1C50",
"O+	c #230A2B",
"P+	c #2E1642",
"Q+	c #7A2245",
"R+	c #4A1A44",
"S+	c #64162A",
"T+	c #721509",
"U+	c #741516",
"V+	c #781523",
"W+	c #7B1427",
"X+	c #7B1529",
"Y+	c #80224D",
"Z+	c #883272",
"`+	c #721404",
" @	c #4C2B6F",
".@	c #593381",
"+@	c #001716",
"@@	c #573281",
"#@	c #A02114",
"$@	c #631108",
"%@	c #00060D",
"&@	c #0A0E27",
"*@	c #080D1A",
"=@	c #2F0023",
"-@	c #502B71",
";@	c #001817",
">@	c #00060E",
",@	c #180A26",
"'@	c #170A26",
")@	c #171D44",
"!@	c #1D2450",
"~@	c #621005",
"{@	c #3A0500",
"]@	c #000005",
"^@	c #04000F",
"/@	c #0C0012",
"(@	c #0D0014",
"_@	c #1A092C",
":@	c #2A1745",
"<@	c #301C4F",
"[@	c #301C50",
"}@	c #261744",
"|@	c #090927",
"1@	c #0B0F28",
"2@	c #160010",
"3@	c #3B0603",
"4@	c #000000",
"5@	c #1B0014",
"                                                                                                                                ",
"    . . . . . . . . . .                                 . .         . . . . . . . . . .                                 . .     ",
"  . + @ @ @ @ @ @ @ @ @ # # # # # # # # # # # # # # # # @ + .     . + @ @ @ @ @ @ @ @ @ # # # # # # # # # # # # # # # # @ + .   ",
"  . @ @ @ @ @ @ @ @ @ @ + # # # # # # # # # # # # # + + @ @ .     . @ @ @ @ @ @ @ @ @ @ + # # # # # # # # # # # # # + + @ @ .   ",
"  . @ @ @ @ @ @ @ @ + + # # # # # # # # # # # # # + @ @ @ @ .     . @ @ @ @ @ @ @ @ + + # # # # # # # # # # # # # + @ @ @ @ .   ",
"  . @ @ @ @ @ @ @ @ + # # # # # # # # # # # # # + + @ @ @ @ .     . @ @ @ @ @ @ @ @ + # # # # # # # # # # # # # + + @ @ @ @ .   ",
"  . @ @ @ @ @ @ + + # # # # # # # # # # # # # + @ @ @ @ @ @ .     . @ @ @ @ @ @ + + # # # # # # # # # # # # # + @ @ @ @ @ @ .   ",
"  . @ @ @ @ @ @ + # # # # # # # # # # # # # + + @ @ @ @ @ @ + . . + @ @ @ @ @ @ + # # # # # # # # # # # # # # + @ @ @ @ @ @ .   ",
"  . @ @ @ @ + + + + + + # # # # # # # # # + @ @ @ @ @ @ @ @ @ @ @ @ @ @ @ @ + + # # # # # # # # # # # # + + + + @ @ @ @ @ @ .   ",
"  . @ @ @ @ + # + + + + # # # # # # # # + + @ @ @ @ @ @ @ @ @ @ @ @ @ @ @ @ + # # # # # # # # # # # # # + + + + @ @ @ @ @ @ .   ",
"  . @ @ + + # # + + + + # # # # # # # + @ @ @ @ @ @ @ @ @ @ @ @ @ @ @ @ + + # # # # # # # # # # # # # # + + + + @ @ @ @ @ @ .   ",
"  . @ @ + # # # + + + + # # # # # # + + @ @ @ @ @ @ @ @ @ @ @ @ @ @ @ @ + # # # # # # # # # # # # # + + + + + + @ @ @ @ @ @ .   ",
"    # + # # # # # # # # # # # # # + @ @ @ @ @ @ @ @ @ @ @ @ @ @ @ @ + + # # # # # # # # # # # # # + @ @ . . . + @ @ @ @ @ @ .   ",
"    # # # # # # #     # # # # # + + @ @ @ @ @ @ @ @ @ @ @ @ @ @ @ @ + # # # # # # # # # # # # # + + @ @ + . . + @ @ @ @ @ @ .   ",
"    # # # # # # # # # # # # # + @ @ @ @ @ @ @ @ @ @ @ @ @ @ + # # # # # # # # # # # # # # # # + @ @ @ @ @ @ @ @ @ @ @ @ @ @ .   ",
"    # # # # # # # # # # # # + + @ @ @ @ @ @ @ @ @ @ @ @ @ @ #       # # # # # # # # # # # # + + @ @ @ @ @ @ @ @ @ @ @ @ @ @ .   ",
"    # # # # # # # # # # # + @ @ @ @ @ @ @ @ @ @ @ @ @ @ @ @ #       # # # # # # # # # # # + @ @ @ @ @ @ @ @ @ @ @ @ @ @ @ @ .   ",
"    # # # # # # # # # # + + @ @ @ @ @ @ @ @ @ @ @ @ @ @ @ @ #     # # # # # # # # # # # + + @ @ @ @ @ @ @ @ @ @ @ @ @ @ @ @ .   ",
"    # # # # # # # # # + @ @ @ @ @ @ @ @ @ @ @ @ @ @ @ @ + + # # # # # # # # # # # # # + @ @ @ @ @ @ @ @ @ @ @ @ @ @ @ @ + #     ",
"    # $ % & & & & & * = - @ @ - ; > , > > > > > > > > , * % ' # # ' % & & & & & & & * * > , > ; - - ; > , > > > > , > ) ! #     ",
"    # % ~ { ] { { ^ / ( ) @ @ ) ( / _ / / / / / / / : ^ { ~ %     % ~ { ] { { { { : / / / _ / ( ) ) ( / _ / / / / _ : < % #     ",
"    # & { [ } | | } [ 1 2 > > 2 1 [ } 3 | 4 5 6 7 7 6 8 9 0 a b b a 0 c d e f g h i j i i k l m 2 2 m 9 8 6 7 7 6 n o { & #     ",
"    # & ] p q r r q p s 1 / / 1 s p q t r u v w x y w z A B C D D C B E F G H I J K L r K q p M 1 1 M A z w y y w N A ] & #     ",
"    # & { O J P P Q R S T U U T S R Q V P W X Y Z Z Y `  ...+.6 @.#.6 $.%.&.*.=.-.;.>.,.;.'.).@.!.+... .` Y Z Z Y v ~.{ & #     ",
"    # & { {.].^.^./.(._.:.<.<.:._.(./.[.^.}.|.,.1.1.,.2.3.4.5.w 6.w x 7.8.9.9.0.a.Z b.Z Z c.d.e.w 5.4.3.2.,.1.f.,.g.h.{ & #     ",
"    # & : i.j.k.l.m.n.o.p.P P p.o.n.m.q.k.[.r.s.t.t.s.u.[.v.w.Y x.Y Y Y Y Y Y Y Y Y Y Y Y Y Y x.Y w.v.[.u.s.t.y.s.K z.{ & #     ",
"    # * / A.G q.B.C.n.D.E.F.F.E.D.n.C.G.q.H.V I.J.J.I.u.[.K.L.,.M.,.,.N.>.O.O.>.N.;.;.;.;.,.,.M.,.L.K.[.u.I.J.P.I.t Q.{ & #     ",
"    # * / i.j.k.l.R.n.S.T.U.U.T.S.n.R.q.k.[.r.s.t.t.s.V.[.[.r.t.W.t.t.t.t.t.t.t.t.t.t.t.t.t.t.W.t.r.[.[.V.s.t.y.s.K z.{ & #     ",
"  . @ > / i.j.k.l.R.n.n.m.q.q.m.n.n.R.q.k.[.r.s.t.t.s.X.[.[.u.I.J.I.I.I.I.I.I.I.I.I.I.I.I.I.I.J.I.u.[.[.X.s.t.y.s.K z.{ & #     ",
"  . + > / i.j.k.l.R.n.Y.Z.T.T.Z.Y.n.R.q.k.[.r.s.t.t.s.X.[.`. +.+++@+#+X.X.X.X.X.X.X.X.X.X.#+@+++.+ +`.[.X.s.t.y.s.K z.{ & #     ",
"    . $+%+i.j.k.l.T.n.&+*+S.S.*+&+n.T.q.k.[.r.s.t.t.s.r.[.=+-+[.[.[.[.[.[.[.[.[.[.[.[.[.[.[.[.[.[.-+=+[.r.s.t.y.s.K z.D b       ",
"      b D i.j.k.l.T.n.&+*+S.S.*+&+n.T.q.k.[.r.s.t.t.s.r.[.;+>+,+'+)+!+~+{+{+{+{+{+{+{+{+~+!+)+'+,+>+;+[.r.s.t.y.s.K z.D b       ",
"      b D i.j.k.l.R.n.Y.Z.T.T.Z.Y.n.R.q.k.[.r.s.t.t.s.]+[.^+/+(+_+:+<+X.@+X.X.X.X.X.X.@+X.<+:+_+(+/+^+[.]+s.t.y.s.K z.D b       ",
"    . $+%+i.j.k.l.R.n.n.R.k.k.R.n.n.R.q.k.[.r.s.t.t.s..+[.,+(+[+}+|+1+2+3+4+5+4+4+5+4+3+2+1+|+}+[+(+,+[..+s.t.y.s.K z.D $+.     ",
"  . + > / i.j.k.l.R.n.S.T.U.U.T.S.n.R.q.k.[.r.s.t.t.s.@+[.'+_+}+6+7+8+7+9+0+a+0+0+a+0+9+7+8+7+6+}+_+'+[.@+s.t.y.s.K z.{ > + .   ",
"  . @ > / i.j.k.l.R.n.n.R.k.k.R.n.n.R.q.k.[.r.s.t.t.s.@+[.)+:+b+c+d+e+4+f+g+h+g+g+h+g+f+4+e+d+c+b+:+)+[.@+s.t.y.s.K z.: > @ .   ",
"  . @ > / i.j.k.l.R.n.n.R.k.k.R.n.n.R.q.k.[.r.s.t.t.s.#+[.!+<+1+8+i+j+5+a+h+k+h+h+k+h+a+5+j+i+8+1+<+!+[.#+s.t.y.s.K z./ > @ .   ",
"  . @ > / i.j.k.l.R.n.n.R.k.k.R.n.n.R.q.k.[.r.s.t.t.s.X.[.[.X.s.t.d+s.4+f+g+h+g+g+h+g+f+4+s.d+t.s.X.[.[.X.s.t.y.s.K z./ > @ .   ",
"  . @ > / i.j.k.l.R.n.n.R.k.k.R.n.n.R.q.k.[.r.s.t.t.s.X.[.~+@+e+l+d+s.4+f+g+h+g+g+h+g+f+4+s.d+l+e+@+~+[.X.s.t.y.s.K z./ > @ .   ",
"  . @ > / i.j.k.l.R.n.n.R.k.k.R.n.n.R.q.k.[.r.s.t.t.s.X.[.[.X.s.t.d+s.5+a+h+k+h+h+k+h+a+5+s.d+t.s.X.[.[.X.s.t.y.s.K z./ > @ .   ",
"  . @ > / i.j.k.l.R.n.n.R.k.k.R.n.n.R.q.k.[.r.s.t.t.s.X.[.[.X.s.t.d+s.4+f+g+h+g+g+h+g+f+4+s.d+t.s.X.[.[.X.s.t.y.s.K z./ > @ .   ",
"  . @ > / i.j.k.l.R.n.n.R.k.k.R.n.n.R.q.k.[.r.s.t.t.s.X.[.[.X.s.t.e+s.m+b+f+a+f+f+a+f+b+m+s.e+t.s.X.[.[.X.s.t.y.s.K z./ > @ .   ",
"  . @ > : i.j.k.l.R.n.n.R.k.k.R.n.n.R.q.k.[.r.s.t.t.s.X.[.[.X.s.t.n+s.2+m+4+5+4+4+5+4+m+2+s.n+t.s.X.[.[.X.s.t.y.s.K z./ > @ .   ",
"  . @ > : i.j.k.l.R.n.n.R.k.k.R.n.n.R.q.k.[.r.s.t.t.s.X.[.[.X.s.t.s.s.n+e+d+d+d+d+d+d+e+n+s.s.t.s.X.[.[.X.s.t.y.s.K z./ > @ .   ",
"    # * { i.j.k.l.R.n.n.R.k.k.R.n.n.R.q.k.[.r.s.t.t.s.X.[.[.X.s.t.s.s.n+e+d+d+d+d+d+d+e+n+s.s.t.s.X.[.[.X.s.t.y.s.K z./ > @ .   ",
"    # & { i.j.k.l.R.n.n.R.k.k.R.n.n.R.q.k.[.r.s.t.t.s.X.[.~+@+e+l+n+s.2+m+4+5+4+4+5+4+m+2+s.n+l+e+@+~+[.X.s.t.y.s.K z./ > @ .   ",
"    # & { i.j.k.l.R.n.n.R.k.k.R.n.n.R.q.k.[.r.s.t.t.s.X.[.[.X.s.t.e+s.m+b+f+a+f+f+a+f+b+m+s.e+t.s.X.[.[.X.s.t.y.s.K z./ > @ .   ",
"    # & { i.j.k.l.R.n.n.R.k.k.R.n.n.R.q.k.[.r.s.t.t.s.#+[.!+<+1+8+i+j+5+a+h+k+h+h+k+h+a+5+j+i+8+1+<+!+[.#+s.t.y.s.K z./ > @ .   ",
"    # & { i.j.k.l.R.n.n.R.k.k.R.n.n.R.q.k.[.r.s.t.t.s.@+[.)+:+b+c+d+e+5+a+h+k+h+h+k+h+a+5+e+d+c+b+:+)+[.@+s.t.y.s.K z./ > @ .   ",
"    # & { i.j.k.l.R.n.S.T.U.U.T.S.n.R.q.k.[.r.s.t.t.s.@+[.'+_+}+6+7+8+7+9+0+a+0+0+a+0+9+7+8+7+6+}+_+'+[.@+s.t.y.s.K z./ > @ .   ",
"    # & { i.j.k.l.R.n.n.R.k.k.R.n.n.R.q.k.[.r.s.t.t.s..+[.,+(+[+}+|+1+2+3+4+5+4+4+5+4+3+2+1+|+}+[+(+,+[..+s.t.y.s.K z./ * #     ",
"    # & { i.j.k.l.R.n.Y.Z.T.T.Z.Y.n.R.q.k.[.r.s.t.t.s.]+[.^+/+(+_+:+<+X.@+X.X.X.X.X.X.@+X.<+:+_+(+/+^+[.]+s.t.y.s.K z./ * #     ",
"    # & { i.j.k.l.T.n.&+*+S.S.*+&+n.T.q.k.[.r.s.t.t.s.r.[.;+>+,+'+)+!+~+{+{+{+{+{+{+{+{+~+!+)+'+,+>+;+[.r.s.t.y.s.K z.: & #     ",
"    # & { i.j.k.l.T.n.&+*+S.S.*+&+n.T.q.k.[.r.s.t.t.s.r.[.=+-+[.[.[.[.[.[.[.[.[.[.[.[.[.[.[.[.[.[.-+=+[.r.s.t.y.s.K z.{ & #     ",
"    # & { i.j.k.l.R.n.Y.Z.T.T.Z.Y.n.R.q.k.[.r.s.t.t.s.X.[.`. +.+++@+#+X.X.X.X.X.X.X.X.X.X.#+@+++.+ +`.[.X.s.t.y.s.K z.{ & #     ",
"    # & { i.j.k.l.R.n.n.R.k.k.R.n.n.R.q.k.[.r.s.t.t.s.X.[.[.X.s.t.s.s.s.s.s.s.s.s.s.s.s.s.s.s.t.s.X.[.[.X.s.t.y.s.K z.{ & #     ",
"    # & { i.j.k.l.R.n.S.T.U.U.T.S.n.R.q.k.[.r.s.t.t.s.V.[.[.r.t.W.t.t.t.t.t.t.t.t.t.t.t.t.t.t.W.t.r.[.[.V.s.t.y.s.K z.{ & #     ",
"    # & : i.j.k.l.R.S.S.T.U.U.T.S.S.R.q.k.[.r.s.t.t.s.X.o+p+X.y.q+y.y.y.y.y.y.r+s+t.t.t.t.s+r+q+y.X.p+o+X.s.t.y.s.K z.{ & #     ",
"    # * / i.j.k.l.R.n.n.R.k.k.R.n.n.R.q.k.[.r.s.t.t.s.X.[.[.X.s.t.s.s.s.s.s.s.s.s.s.s.s.s.s.s.t.s.X.[.[.X.s.t.y.s.K z.{ & #     ",
"    # * / i.H U.U.R.t+u+v+H H v+u+t+R.B.U.p+P y.q+w+y.x+y+z+A+K L K K B+C+D+E+F+G+H+H+H+H+x+I+J+K+A+z+y+x+y.w+L+y.r z.{ & #     ",
"  . @ > / i.j.k.l.M+N+O+P+i.i.P+O+N+M+q.k.[.r.s.t.r+s.I+Q+R+S+z.T+z.z.U+V+W+X+Y+Z+[.[.o+[.y+Q+T+`+S+R+Q+I+s.r+y.s.K z.{ & #     ",
"  . + > / E  @.@.@ @E +@1 / / 1 +@E  @@@.@].J r J+r r #@$@%@C D D &@*@C a =@b u+-@H .@.@H  @E ;@1 1 >@$@#@r r r r q $@{ & #     ",
"    . $+%+,@E i.i.E '@&@)@!@!@)@&@'@E A.i.R+O z.T+z.z.~@{@C a b b a &@]@^@/@(@_@:@<@[@[@<@}@|@1@)@)@2@{@~@z.z.z.z.p 3@D b       ",
"      b D 4@4@4@4@4@4@D b     b D 4@4@4@4@4@4@4@4@4@4@4@4@D b     b D 4@4@4@4@4@4@4@4@4@4@4@4@5@b b 5@4@4@4@4@4@4@4@4@D b       "};
