/* XPM */
static char * cyborg_xpm_xpm[] = {
"64 64 12 1",
" 	c #38002C",
".	c #000000",
"+	c #222A5C",
"@	c #37446E",
"#	c #006462",
"$	c #052C46",
"%	c #158968",
"&	c #566A89",
"*	c #8BABBF",
"=	c #FFDBA5",
"-	c #663B93",
";	c #5BECF1",
"                                 ...                            ",
"  ++++++++++                ++   .++++++++++                ++  ",
" +@#########$$$$$$$$$$$$...$#@+  .%%+.######$$$$$$$$$$$$$$$$#@+ ",
" +##########@$$$$$$$$$$..+%+##+...%%%%+#####@$$$$$$$$$$$$$@@##+ ",
" +########@@$$$$$$$$$$$$.%%+.....+%%%%+.##@@$$$$$$$$$$$$$@####+ ",
" +########@$$$$$$$$$$$$$@+%%%%%%%%%%%%+.##@$$$$$$$$$$$$$@@####+ ",
" +######@@$$$$$$$$$$$$$@#++%%%%%%%%%%%+.@@$$$$$$$$$$$$$@######+ ",
" +######@$$$$$$$$$$$$$@@.%%%%%%%%%%%%%+.@$$$$$$$$$$$$$$@######+ ",
" +####@@@@@@$$$$$$$$$@#..%%%&&*****&&%+.$$$$$$$$$$$$@@@@######+ ",
" +####@$@@@@$$$$$$$$@@#..%%%&=======&+@$$$$$$$$$$$$$@@@@######+ ",
" +##@@$$@@@@$$$$$$$@###..%&**=======&.$$$$$$$$$$$$$$@@@@######+ ",
" +##@$$$@@@@$$$$$$@@###..%&==&&&&&&& .$$$$$$$$$$$$@@@@@@######+ ",
"  $@$$$$$$$$$$$$$@######.+&==&+---+...$$$$$$$$$$$@##+++@######+ ",
"  $$$$$$$  $$$$$@@#######.&==&-----+ .$$$$$$$$$$@@##@++@######+ ",
"  $$$$$$$$$$$$$@########..&===******&..$$$$$$$$@##############+ ",
"  $$$$$$$$$$$$@@#######+++&=========*++ $$$$$$@@##############+ ",
"  $$$$$$$$$$$@######## &&&**========*&&++$$$$@################+ ",
"  $$$$$$$$$$@@#######+&&*****=======**&&++$$@@################+ ",
"  $$$$$$$$$@######## &&****************&&++@################@$  ",
"  $$$$$$$$@@######## &******************&&+.################@$  ",
"  $$$$$$$@########## &****&******;;;****&&+.##############@@$$  ",
"  $$$$$$@@#########++&***&&&*****;;;****&+ .##############@$$$  ",
"  $$$$$@##########.+&&&&&&&&&****;;;**&&++..############@@$$$$  ",
"  $$$$@@######### +&&&&&++++&&***;;;**&+++.#############@$$$$$  ",
"  $$$@##########++&&&&+ ++++&&&&*;;;*&&+ .############@@$$$$$$  ",
"  $$@@#########+&&&&&+...+++&&&&&***&&&++.############@$$$$$$$  ",
"  $@##########.+&**&+.$..++&&&&+++++++&&+.##########@@$$$$$$$$  ",
"  $@##########.+****+.$..++&&&&&&&+++&&&+.##########@$$$$$$$$$  ",
" +############.+&**&+$$$.++&&&&&&&&+&&&&+.########@@$$$$$$$$$$  ",
" +@###########.+&&&&$$$$$ ++&&&&&&&+&&&+ .########@$$$$$$$$$$$  ",
"  +++++@######++&&+$$$$  ..++&&&&&++&&++ .##@+++@@$$$$$$$       ",
"       +#####++&++  $$   ..+++++++++++++++.#+   $$$$$$$$        ",
"       +####.+&&+.  $$    .+++++++++++. ++..+   $$$$$$$$        ",
"  +++++@####.+&&+. $$$$    .+++++++++.. ++..+  $$$$$$$$$$   ++  ",
" +@#########.+&&+..$$$$$$$$$.+++++++ .. ++..@$$$$$$$$$$$$$$$#@+ ",
" +##########.+&*&++ ..$$$$@@@.     .##. ++..@$$$$$$$$$$$$$@@##+ ",
" +########@@.+&**&&&+.$$$@##...   ..... +++ $$$$$$$$$$$$$@####+ ",
" +########@$.+&****&+.$$@@#+++++       +++++.$$$$$$$$$$$@@####+ ",
" +######@@$$.+&***&&$$$@##+&&&&&&&&&&&&+++++.$$$$$$$$$$@######+ ",
" +######@$$$$+&***&.$$@@#+&****&&&&&&&&&++++.$$$$$$$$$@@######+ ",
" +####@@$$$$$$&&**&.$@##+&*****&&&&&&++++++..$$$$$$$$@########+ ",
" +####@$$$$$$$$+&&+.@@#.+&*****&&&&&++++++...$$$$$$$@@########+ ",
" +##@@$$$$$$$$$$&++.###.+&***&&&&&&+++++++..$$$$$$$@##########+ ",
" +##@$$$$$$$$$$$$..@###.+&***&&&&&++++++++..$$$$$$@@##########+ ",
"  $@$$$$$$$$$$$$$@#####.+&&&&&&+++  ++++++..$$$$$@############+ ",
"  $$$$$$$$$$$$$$@@#####.+&&&&&&+ ...++++++..$$$$@@############+ ",
"  $$$$$$$$$$$$$@#######.+&&&&&&+. ..++++++..$$$@##############+ ",
"  $$$$$$$$$$$$@@#######.+&&&&&&+.$..++++++..$$@@##############+ ",
"  $$$$$$$$$$$@#########.+&&&&&&+.$$.++++++ .$@################+ ",
"  $$$$$$$$$$@@#########.+&****&+.$$$ +++++++.@################+ ",
"  $$$$$$$$$@###########.+&****&+$$$$. ++++++.###############@$  ",
"  $$$$$$$$$@###########.+&***&&$$$$$..++++++.###############@$  ",
"  $$$$$$@@@@###########.+&**&+.$$$$$..++++++.########@@###@@$$  ",
"  $$$$$$@@@@###########.+&&&&+.$$$$$..++++++.#######@@@@##@$$$  ",
"  $$$$$$@@@@###########.++&&++.$$$$$..++++++.#######@@@@@@$$$$  ",
"  $$$$@@@@@@##########.++++++ .$$$$$..++++++.#######@@@@$$$$$$  ",
"  $$$@##+++@##########.++++++..  $$$$.++++++.#######@$$$$$$$$$  ",
"  $$@@##@++@##########.++++++..   $$@@.+++++.#######+  $$$$$$$  ",
"  $@################@@.++++++.    $@##. ++++.#######@$$$$$$$$$  ",
"  $@################@$.++++ .$    $@##. ++++..######@$$$$$$$$$  ",
" +################@@$$. ++  .$   +####.. ++....###@@$$$$$$$$$$  ",
" +@###############$$$$.     .$   +@###.........###$$$$$$$$$$$$  ",
"  ++++++++++++++++    .    ..     ++++.........+++              ",
"                      .    ..         .........                 "};
