/* XPM */
static char * exit_p2_xpm[] = {
"64 64 26 1",
" 	c #303C58",
".	c #4C4D55",
"+	c #445973",
"@	c #686F78",
"#	c #000000",
"$	c #1B202B",
"%	c #052C46",
"&	c #1B2234",
"*	c #647E93",
"=	c #800C53",
"-	c #AB1F65",
";	c #006462",
">	c #E6336A",
",	c #EC8617",
"'	c #B97A4D",
")	c #F96B80",
"!	c #CE8840",
"~	c #8EA9BB",
"{	c #FFDBA5",
"]	c #CCAC68",
"^	c #566A89",
"/	c #222A5C",
"(	c #37446E",
"_	c #CCE2E1",
":	c #D22F1E",
"<	c #FF8142",
"   .++++++++++++++@@@ ##$+@@++++++++++++++++++++++++++++++++.   ",
"           +++    +++ ##$++++       ++++++++++++++++++          ",
"        +++++++   +++ ##$++++ #######+++++++++++++++++++        ",
"+++++++%%%%%%%+  +%%%+##&***+ #==----=;;;;;;;;;;;;;;;;;;;+++++++",
"+++++++%%%%%%%+  +%%%+##&***+ #=>>>>>=#;;;;;;;;;;;;;;;;;;+++++++",
" ++++++%%%%%%%+  +%%%+##&######=>>>>>=#;;;;@@@;;;;;;;;;;;+++++++",
"    +++%%%%%%%@+++%%%+##&======->>>>>-=;;;@,,,';;;;;;;;;;++++   ",
"    +++%%%%%%%@+++%%%+##=----->))>>>>>-=;;@,,,';;;;;;;;;;++++   ",
"++++%%%%%%%%%%@+++%%%+##=>>>>>))))>>>>>=#'''!''''@;;;;;;;;;;@+++",
"@%%%~~~%%%%%%%@+++%%%+##=>>>))))))>>>>>=#,!***',,!;;;;;;;~~~~***",
"@%%%~~~%%%%%%%@+++%%%+##=->>))))))))>>>=#,!***',,!;;;;;;;~~~~***",
"@%%%~~~%%%%%%%@+++%%%+###=->)))))){)>>>=#''***''''''';;;;~~~~***",
"@%%%~~~%%%%%%%@+++%%%+##==->>))>>){{))-==*********,,,';;;~~~~***",
"@%%%~~~%%%%%%%++++%%%+##=>>>>>>>>){{{]--==#*******!,,';;;~~~~***",
"+++%%%%%%%%%%%%@@%%%%+=-->>>>>>)){{{{]---==''''''',,,';;;;;;;+++",
"    +++%%%%%%%%%%%%%%#=>>>>>>>>){{{{{]----=#,,,,,,,,,';;;++++   ",
"    +++%%%%%%%%%%%%%%#=>>-->>)){{{{{{]-====#,,,,,,,,,';;;++++   ",
" ++++++%%%%%%%%%%%%%%#=--=->>){{{{{{{]-=####''''''''';;;;+++++++",
"+++++++%%%%%%%%%%%%%%##=-->>>){{{{{{{]-=#;;;;;;;;;;;;;;;;+++++++",
"+++++++%%%%%%%%%%%%%%###=>>>>){{{{{{{]==#;;;;;;;;;;;;;;;;+++++++",
"+++++++%%%%%%%%%%%%%%+##=>>>>){{{{{{{]=##~~~~~~~~~~~~;;;;+++++++",
"+++++++%%%%%%%%%%%%%%+##=>>>>)]{{{{{]^///~~~~~~~~~~~~~;;;+++++++",
"+++++++%%%%%%%%%%%%%%+##=>>^>>]^^^^^^^^(/#~~~~~~~~~~~~;;;+++++++",
"+++++++%%%%%%%%%%%~~~@==--^^---^^^^^^^^^(/#;;;;;;;;;;;;;;+++++++",
"+++++++%%%%%%%%%%%~~~#=>>^^^^^>>^^^^^^^^(/#;;;;;;;;;;;;;;+++++++",
"+++++++%%%%%%%%%%%~~~#^]]^^^^^--^^^^^^^^^(/;;;;;;;;;;;;;;+++++++",
"+++++++%%%%%%%%%%%%%%#^__^^^^^^^^^^^^^^^^^(#;;;;;;;;;;;;;+++++++",
"+++++++%%%%%%%%%%%%%%#(^____^^^^^^^^^^^^^^(#;;;;;;;;;;;;;+++++++",
"+++++++%%%%%%%%%%%%%%#/^^____^^^^^^^^^^^^^^/;;;;;;;;;;;;;+++++++",
"+++++++%%%%%%%%%%%%%%#/^^^^^____^^^^^^^^^_^/;;;;;;;;;;;;;+++++++",
"+++++++%%%%%%%%%%%%%%#/^^^((^___^^^^^^^^__^(;;;;;;;;;;;;;+++++++",
"+++++++%%%%%%%%%%%%%%#/^^^(/^^^^___^^^^__^^;;;;;;;;;;;;;;+++++++",
"+++++++%%%%%%%%%%%%%%#/^^^(//((^____^^__^(#;;;;;;;;;;;;;;+++++++",
"+++++++%%%%%%%%%%%%%%#/^^^(//(((^^^____^^/#;;;;;;;;;;;;;;+++++++",
"+++++++%%%%%%%%%%%%%%/(^^^(///(((/(^__]^//#;;;;;;;;;;;;;;+++++++",
"+++++++%%%%%%%%%%%%%/(^^^^(##/(((((^^^^((//#++;;;;;;;;;;;+++++++",
"+++++++%%%%%%%%%%%%#/----(/##//((((((((((=/#++;;;;;;;;;;;+++++++",
"+++++++%%%%%%%%%%%%#=::::=#%#//((((((((((==#++;;;;;;;;;;;+++++++",
"+++++++%%%%%%%%%%%%##::::#%%#//((((((((((====+;;;;;;;;;;;+++++++",
"+++++++%%%%%%%%%%%%#=:<<:=%%#//((((((((((---=#;;;;;;;;;;;+++++++",
"+++++++%%%%%%%%%%%%#(]{{](%%##/(((((((((^]]]^#;;;;;;;;;;;+++++++",
"+++++++%%%%%%%%%%%%#^]{{](#%==----===(((^]]]^#;;;;;;;;;;;+++++++",
"+++++++%%%%%%%%%%%%#^]{{](#=:<<<<<::--==^]]]^#;;;;;;;;;;;+++++++",
" ++++++%%%%%%%%%%%%#(]]]](#=:<<<<<:::===-]]]^#;;;;;;;;;;;+++++++",
"    +++%%%%%%%%%%%%##(^^^%#=:<<<<:=#======((/+;;;;;;;;;;;++++   ",
"    +++%%%%%%%%%%%%%####%%%=:<<<<:###=====##++;;;;;;;;;;;++++   ",
"+++%%%%%%%%~~~~~~~~~~~~~~~#=<<<<:#*##======#++;~~~~~~;;;;;;;;+++",
"@%%%~~~%%%%~~~~~~~~~~~~~~~::<<<<=#*##======#++;~~~~~~~;;;~~~~***",
"@%%%~~~%%%%~~~~~~~~~~~~~~#:<<<<<=#*+#======#++;~~~~~~~;;;~~~~***",
"@%%%~~~%%%%%%%%%%%%%%%%%%#:<<<<:=#*+#========+;;;;;;;;;;;~~~~***",
"@%%%~~~%%%%%%%%%%%%%%%%%%#:<<<<:=#*+##/======#;;;;;;;;;;;~~~~***",
"@%%%~~~%%%%%%%%%%%%%%%%%%#::<<<:=#*+##/======#;;;;;;;;;;;~~~~***",
".+++%%%%%%%~~~~~~~%%%%%%%#::<<<:=#*+##/======#;~~~;;;;;;;;;;;+++",
"    +++%%%%~~~~~~~%%%%%%%#::::::=#*+##/======#;~~~;;;;;;;;;;+   ",
"    +++%%%%~~~~~~~%%%%%%==::::::=**+###=======#~~~;;;;;;;;;;+   ",
" ++++++%%%%~~~~%%%%%%%~#=:::::==***+##$#======/#~~~~~;;;;;;;@+++",
"+++++++%%%%~~~%%%%%%%~~#=:::::=#***+##$#=======#~~~~~~;;;;;;@+++",
"+++++++%%%%~~~%%%%%%%~~#=:::::=#***+##$#=======#~~~~~~;;;;;;@+++",
"+++++++%%%%%%%%%%%%%%%%#=:::::=#***+##$#=======#;;;;;;;;;;;;@+++",
"+++++++%%%%%%%%%%%%%%%%#=:::::=#***+##$#======/#;;;;;;;;;;;;@+++",
"+++++++%%%%%%%%%%%%%%%%#=======#***+##$##=====###;;;;;;;;;;;@+++",
"          ++++++++++++ #///////#+++ ##############+++++++       ",
"           +++++++++++ #//////##+++ ##############+++++++       ",
"       ++++++++++++++++#//////##+++.##############+++++++++++   "};
