/* XPM */
static char * exit_xpm[] = {
"64 64 16 1",
" 	c #303C58",
".	c #4C4D55",
"+	c #445973",
"@	c #686F78",
"#	c #000000",
"$	c #1B202B",
"%	c #052C46",
"&	c #1B2234",
"*	c #647E93",
"=	c #006462",
"-	c #EC8617",
";	c #B97A4D",
">	c #CE8840",
",	c #8EA9BB",
"'	c #BED2DC",
")	c #95AFC0",
"   .++++++++++++++@@@ ##$+@@++++++++++++++++++++++++++++++++.   ",
"           +++    +++ ##$++++       ++++++++++++++++++          ",
"        +++++++   +++ ##$++++    +++++++++++++++++++++++        ",
"+++++++%%%%%%%+  +%%%+##&***+   =========================+++++++",
"+++++++%%%%%%%+  +%%%+##&***+   =========================+++++++",
" ++++++%%%%%%%+  +%%%+##&***+   ===========@@@===========+++++++",
"    +++%%%%%%%@+++%%%+##&***+   ==========@---;==========++++   ",
"    +++%%%%%%%@+++%%%+##&***+   ==========@---;==========++++   ",
"++++%%%%%%%%%%@+++%%%+##&***@  +=======@;;;;>;;;;@==========@+++",
"@%%%,,,%%%%%%%@+++%%%+##&***@+++=======>-->***;-->=======,,,,***",
"@%%%,,,%%%%%%%@+++%%%+##&***@+++=======>-->***;-->=======,,,,***",
"@%%%,,,%%%%%%%@+++%%%+##&***@+++====;;;;;;;***;;;;;;;====,,,,***",
"@%%%,,,%%%%%%%@+++%%%+##&***@+++===;---@**********---;===,,,,***",
"@%%%,,,%%%%%%%++++%%%+##&***@+++===;---@**********>--;===,,,,***",
"+++%%%%%%%%%%%%@@%%%%+##&***@+++===;---;;;;;;;;;;;---;=======+++",
"    +++%%%%%%%%%%%%%%+##&***@+++===;-----------------;===++++   ",
"    +++%%%%%%%%%%%%%%+##&***@+++===;-----------------;===++++   ",
" ++++++%%%%%%%%%%%%%%+##&***@+++====;;;;;;;;;;;;;;;;;====+++++++",
"+++++++%%%%%%%%%%%%%%+##&***@+++=========================+++++++",
"+++++++%%%%%%%%%%%%%%+##&***@+++=========================+++++++",
"+++++++%%%%%%%%%%%%%%+##&***@+++====,,,,,,,,,,,,,,,,,====+++++++",
"+++++++%%%%%%%%%%%%%%+##&***@+++====,,,,,,,,,,,,,,,,,,===+++++++",
"+++++++%%%%%%%%%%%%%%+##&***@+++====,,,,,,,,,,,,,,,,,,===+++++++",
"+++++++%%%%%%%%%%%,,,@$$ ***@+++=========================+++++++",
"+++++++%%%%%%%%%%%,,,%$& ***@+++=========================+++++++",
"+++++++%%%%%%%%%%%,,,%&& ***@+++=========================+++++++",
"+++++++%%%%%%%%%%%%%%%,,,.  +***+++@=====================+++++++",
"+++++++%%%%%%%%%%%%%%,,,,.$$+***++++=====================+++++++",
"+++++++%%%%%%%%%%%%%%,,,,.  +***++++=====================+++++++",
"+++++++%%%%%%%%%%%%%%%++@,,,*   @***+++==================+++++++",
"+++++++%%%%%%%%%%%%%%@+++,,,*&&&@***+++==================+++++++",
"+++++++%%%%%%%%%%%%%%@++@,,,*...@***+++==================+++++++",
"+++++++%%%%%%%%%%%%%%%%%%+  ,'''@&&@,,,=+++==============+++++++",
"+++++++%%%%%%%%%%%%%%%%%%   ,'''@$$@,,,=+++==============+++++++",
"+++++++%%%%%%%%%%%%%%%%%%++ *'')*++*,,,=@@@==============+++++++",
"+++++++%%%%%%%%%%%%%%%%%%%%%@  +)'')&& =,,,+++===========+++++++",
"+++++++%%%%%%%%%%%%%%%%%%%%%+  +)'')&&&=,,,+++===========+++++++",
"+++++++%%%%%%%%%%%%%%%%%%%%%@  +)'',&$&=,,*+++===========+++++++",
"+++++++%%%%%%%%%%%%%%%%%%%%%@+++,,,*##$@***+++===========+++++++",
"+++++++%%%%%%%%%%%%%%%%%%%%%@+++,,,*##$@***+++===========+++++++",
"+++++++%%%%%%%%%%%%%%%%%%%%%@+++,,,*##$@***+++===========+++++++",
"+++++++%%%%%%%%%%%%%%%%%%%%%@+++,,,*##$@***+++===========+++++++",
"+++++++%%%%%%%%%%%%%%%%%%%%%@+++,,,*##$@***+++===========+++++++",
" ++++++%%%%%%%%%%%%%%%%%%%%%@+++*,,*##$@***+++===========+++++++",
"    +++%%%%%%%%%%%%%%%%%%%%%@+++***+##$@***+++===========++++   ",
"    +++%%%%%%%%%%%%%%%%%%%%%@+++***+##$@***+++===========++++   ",
"+++%%%%%%%%,,,,,,,,,,,,,,,,,%+++***+##$@***+++=,,,,,,========+++",
"@%%%,,,%%%%,,,,,,,,,,,,,,,,,%+++***+##$@***+++=,,,,,,,===,,,,***",
"@%%%,,,%%%%,,,,,,,,,,,,,,,,,%+++***+##$@***+++=,,,,,,,===,,,,***",
"@%%%,,,%%%%%%%%%%%%%%%%%%%%%%+++***+##$@***+++===========,,,,***",
"@%%%,,,%%%%%%%%%%%%%%%%%%%%%@+++***+##$@***+++===========,,,,***",
"@%%%,,,%%%%%%%%%%%%%%%%%%%%%@+++***+##$@***+++===========,,,,***",
".+++%%%%%%%,,,,,,,%%%%%%%,,,*+++***+##$@***+++=,,,===========+++",
"    +++%%%%,,,,,,,%%%%%%%,,,*+++***+##$@***+++=,,,==========+   ",
"    +++%%%%,,,,,,,%%%%%%%,,,*+++***+##$@***+++=,,,==========+   ",
" ++++++%%%%,,,,%%%%%%%,,,,,,*   ***+##$@***   =,,,,,,=======@+++",
"+++++++%%%%,,,%%%%%%%,,,,,,,*   ***+##$@***   =,,,,,,,======@+++",
"+++++++%%%%,,,%%%%%%%,,,,,,,*   ***+##$@***   =,,,,,,,======@+++",
"+++++++%%%%%%%%%%%%%%%%%%%%%@   ***+##$@***   @=============@+++",
"+++++++%%%%%%%%%%%%%%%%%%%%%+   ***+##$@***   @=============@+++",
"+++++++%%%%%%%%%%%%%%%%%%%%%+   ***+##$@**@   @=============@+++",
"          ++++++++++++          +++ ###++++       +++++++       ",
"           +++++++++++          +++ ### +++       +++++++       ",
"       ++++++++++++++++++       +++.###++++++++++++++++++++++   "};
