/* XPM */
static char * floor_xpm[] = {
"64 64 6 1",
" 	c #38002C",
".	c #222A5C",
"+	c #37446E",
"@	c #006462",
"#	c #052C46",
"$	c #000000",
"                                                                ",
"  ..........                ..    ..........                ..  ",
" .+@@@@@@@@@################@+.  .+@@@@@@@@@################@+. ",
" .@@@@@@@@@@+#############++@@.  .@@@@@@@@@@+#############++@@. ",
" .@@@@@@@@++#############+@@@@.  .@@@@@@@@++#############+@@@@. ",
" .@@@@@@@@+#############++@@@@.  .@@@@@@@@+#############++@@@@. ",
" .@@@@@@++#############+@@@@@@.  .@@@@@@++#############+@@@@@@. ",
" .@@@@@@+#############++@@@@@@+..+@@@@@@+##############+@@@@@@. ",
" .@@@@++++++#########+@@@@@@@@@@@@@@@@++############++++@@@@@@. ",
" .@@@@+#++++########++@@@@@@@@@@@@@@@@+#############++++@@@@@@. ",
" .@@++##++++#######+@@@@@@@@@@@@@@@@++##############++++@@@@@@. ",
" .@@+###++++######++@@@@@@@@@@@@@@@@+#############++++++@@@@@@. ",
"  #+#############+@@@@@@@@@@@@@@@@++#############+@@...+@@@@@@. ",
"  #######  #####++@@@@@@@@@@@@@@@@+#############++@@+..+@@@@@@. ",
"  #############+@@@@@@@@@@@@@@+################+@@@@@@@@@@@@@@. ",
"  ############++@@@@@@@@@@@@@@#   ############++@@@@@@@@@@@@@@. ",
"  ###########+@@@@@@@@@@@@@@@@#   ###########+@@@@@@@@@@@@@@@@. ",
"  ##########++@@@@@@@@@@@@@@@@#  ###########++@@@@@@@@@@@@@@@@. ",
"  #########+@@@@@@@@@@@@@@@@++#############+@@@@@@@@@@@@@@@@+#  ",
"  ########++@@@@@@@@@@@@@@@@+#############++@@@@@@@@@@@@@@@@+#  ",
"  #######+@@@@@@@@@@@@@@@@++###  ########+@@@@@@@@@@@@@@@@++##  ",
"  ######++@@@@@@@@@@@@@@@@+###    ######++@@@@@@@@@@@@@@@@+###  ",
"  #####+@@@@@@@@@@@@@@@@++####    #####+@@@@@@@@@@@@@@@@++####  ",
"  ####++@@@@@@@@@@@@@@@@+#####    ####++@@@@@@@@@@@@@@@@+#####  ",
"  ###+@@@@@@@@@@@@@@@@++######    ###+@@@@@@@@@@@@@@@@++######  ",
"  ##++@@@@@@@@@@@@@@@@+#######    ###+@@@@@@@@@@@@@@@@+#######  ",
"  #+@@@@@@@@@@@@@@@@++#####          .@@@@@@@@@@@@@@++########  ",
"  #+@@@@@@@@@@@@@@@@+######         .+@@@@@@@@@@@@@@+#########  ",
" .@@@@@@@@@@@@@@@@++########   $$   +@@@@@@@@@@@@@++##########  ",
" .+@@@@@@@@@@@@@@@##########  $$$$ .+@@@@@@@@@@@@@+###########  ",
"  .....+@@@@@@@@+. ####      $$$$$$ .....+@@+...++#######       ",
"       .@@@@@@@@.   ##      $$$$$$$$     .@@.   ########        ",
"       .@@@@@@+#    ##      $$$$$$$$     .@@.   ########        ",
"  .....+@@@@@@+##  ####      $$$$$$ .....+@@.  ##########   ..  ",
" .+@@@@@@@@@++################$$$$..+@@@@@@@+###############@+. ",
" .@@@@@@@@@@+#############+++# $$ .+@@@@@@@@+#############++@@. ",
" .@@@@@@@@++#############+@@@+.  .+@@@@@@@++#############+@@@@. ",
" .@@@@@@@@+#############++@@@@.  .@@@@@@@@+#############++@@@@. ",
" .@@@@@@++#############+@@@@@@.  .@@@@@@++#############+@@@@@@. ",
" .@@@@@@+#############++@@@@@@.  .@@@@@@+#############++@@@@@@. ",
" .@@@@++#############+@@@@@@@@.  .@@@@++#############+@@@@@@@@. ",
" .@@@@+#############++@@@@@@@@+..+@@@@+#############++@@@@@@@@. ",
" .@@++#############+@@@@@@@@@@@@@@@@++#############+@@@@@@@@@@. ",
" .@@+#############++@@@@@@@@@@@@@@@@+#############++@@@@@@@@@@. ",
"  #+#############+@@@@@@@@@@@@+...++#############+@@@@@@@@@@@@. ",
"  ##############++@@@@@@@@@@@@.   ##############++@@@@@@@@@@@@. ",
"  #############+@@@@@@@@@@@@@@.   #############+@@@@@@@@@@@@@@. ",
"  ############++@@@@@@@@@@@@@@.  #############++@@@@@@@@@@@@@@. ",
"  ###########+@@@@@@@@@@@@@@@@+##############+@@@@@@@@@@@@@@@@. ",
"  ##########++@@@@@@@@@@@@@@@@+#############++@@@@@@@@@@@@@@@@. ",
"  #########+@@@@@@@@@@@@@@@@++#############+@@@@@@@@@@@@@@@@+#  ",
"  #########+@@@@@@@@@@@@@@@@+#############++@@@@@@@@@@@@@@@@+#  ",
"  ######++++@@@@@@@@@@@@@@++#############+@@@@@@@@@@@++@@@++##  ",
"  ######++++@@@@@@@@@@@@@@+#############++@@@@@@@@@@++++@@+###  ",
"  ######++++@@@@@@@@@@@@++#############+@@@@@@@@@@@@++++++####  ",
"  ####++++++@@@@@@@@@@@@+#############++@@@@@@@@@@@@++++######  ",
"  ###+@@...+@@@@@@@@@@++#######  ####+@@@@@@@@@@@@@@+#########  ",
"  ##++@@+..+@@@@@@@@@@+#######    ##++@@@@@@@@@@@@@@.  #######  ",
"  #+@@@@@@@@@@@@@@@@++########    #+@@@@@@@@@@@@@@@@+#########  ",
"  #+@@@@@@@@@@@@@@@@+#########    #+@@@@@@@@@@@@@@@@+#########  ",
" .@@@@@@@@@@@@@@@@++##########   .@@@@@@@@@@@@@@@@++##########  ",
" .+@@@@@@@@@@@@@@@############   .+@@@@@@@@@@@@@@@############  ",
"  ................                ................              ",
"                                                                "};
