/* XPM */
static char * left_wall_xpm[] = {
"64 64 7 1",
" 	c #000000",
".	c #38002C",
"+	c #222A5C",
"@	c #F36A17",
"#	c #8C284A",
"$	c #566A89",
"%	c #37446E",
"    ......++....++++++++++++++++++++++..........................",
"   .....++++++++++++++++++++++++++++++++........................",
"  +++++++@@@@@@@@@@@@@@@@@@@@@@@@@@@@@@@++....################..",
" .++++++@@@@@@@@@@@@@@@@@@@@@@@@@@@@@@@@++....################..",
" .++++++@@@@@@@@@@@@@@@@@@@@@@@@@@@@@@@@++....################..",
" .++++++@@@@@@@@@@@@@@@@@@@@@@@@@@@@@@@@++....################..",
" .++++++@@@@@@@@@@@@@@@@@@@@@@@@@@@@@@@@++....################..",
" .++++++@@@@@@@@@@@@@@@@@@@@@@@@@@@@@@@@++....################..",
" .++++++@@@@@@$$$$@@@@@@@@@@@@@@@@@@@@@@++....######%%%%######..",
" .++++++@@@@@@$$$$@@@@@@@@@@@@@@@@@@@@@@++....######%%%%######..",
" .++++++@@@@@@$$$$@@@@@@@@@@@@@@@@@@@@@@++....######%%%%######..",
" .++++++@@@@@@$$$$@@@@@@@@@@@@@@@@@@@@@@++....######%%%%######..",
" .++++++@@@@@@@@@@@@@@@@@@@@@@@@@@@@@@@@++....################..",
" .++++++@@@@@@@++@@@@@@@@@@@@@@@@@@@@@@@++....#######..#######..",
" .++++++@@@@@@@@@@@@@@@@@@@@@@@@@@@@@@@@++....################..",
" .++++++@@@@@@@@@@@@@@@@@@@@@@@@@@@@@@@@++....################..",
" .++++++@@@@@@@@@@@@@@@@@@@@@@@@@@@@@@@@++....################..",
" .++++++@@@@@@@@@@@@@@@@@@@@@@@@@@@@@@@@++....################..",
" .++++++@@@@@@@@@@@@@@@@@@@@@@@@@@@@@@@@++....################..",
" .++++++@@@@@@@@@@@@@@@@@@@@@@@@@@@@@@@@++....################..",
" .++++++@@@@@@@@@@@@@@@@@@@@@@@@@@@@@@@@++....################..",
" .++++++@@@@@@@@@@@@@@@@@@@@@@@@@@@@@@@@++....################..",
" .++++++@@@@@@@@@@@@@@@@@@@@@@@@@@@@@@@@++....################..",
" .++++++@@@@@@@@@@@@@@@@@@@@@@@@@@@@@@@@++....################..",
" .++++++@@@@@@@@@@@@@@@@@@@@@@@@@@@@@@@@++....################..",
" .++++++@@@@@@@@@@@@@@@@@@@@@@@@@@@@@@@@++....################..",
" .++++++@@@@@@@@@@@@@@@@@@@@@@@@@@@@@@@@++....################..",
" .++++++@@@@@@@@@@@@@@@@@@@@@@@@@@@@@@@@++....################..",
" .++++++@@@@@@@@@@@@@@@@@@@@@@@@@@@@@@@@++....################..",
" .++++++@@@@@@@@@@@@@@@@@@@@@@@@@@@@@@@@++....################..",
" .++++++@@@@@@@@@@@@@@@@@@@@@@@@@@@@@@@@++....################..",
" .++++++@@@@@@@@@@@@@@@@@@@@@@@@@@@@@@@@++....################..",
" .++++++@@@@@@@@@@@@@@@@@@@@@@@@@@@@@@@@++....################..",
" .++++++@@@@@@@@@@@@@@@@@@@@@@@@@@@@@@@@++....################..",
" .++++++@@@@@@@@@@@@@@@@@@@@@@@@@@@@@@@@++....################..",
" .++++++@@@@@@@@@@@@@@@@@@@@@@@@@@@@@@@@++....################..",
" .++++++@@@@@@@@@@@@@@@@@@@@@@@@@@@@@@@@++....################..",
" .++++++@@@@@@@@@@@@@@@@@@@@@@@@@@@@@@@@++....################..",
" .++++++@@@@@@@@@@@@@@@@@@@@@@@@@@@@@@@@++....################..",
" .++++++@@@@@@@@@@@@@@@@@@@@@@@@@@@@@@@@++....################..",
" .++++++@@@@@@@@@@@@@@@@@@@@@@@@@@@@@@@@++....################..",
" .++++++@@@@@@@@@@@@@@@@@@@@@@@@@@@@@@@@++....################..",
" .++++++@@@@@@@@@@@@@@@@@@@@@@@@@@@@@@@@++....################..",
" .++++++@@@@@@@@@@@@@@@@@@@@@@@@@@@@@@@@++....################..",
" .++++++@@@@@@@@@@@@@@@@@@@@@@@@@@@@@@@@++....################..",
" .++++++@@@@@@@@@@@@@@@@@@@@@@@@@@@@@@@@++....################..",
" .++++++@@@@@@@@@@@@@@@@@@@@@@@@@@@@@@@@++....################..",
" .++++++@@@@@@@@@@@@@@@@@@@@@@@@@@@@@@@@++....################..",
" .++++++@@@@@@@@@@@@@@@@@@@@@@@@@@@@@@@@++....################..",
" .++++++@@@@@@@@@@@@@@@@@@@@@@@@@@@@@@@@++....################..",
" .++++++@@@@@@@@@@@@@@@@@@@@@@@@@@@@@@@@++....################..",
" .++++++@@@@@@@@@@@@@@@@@@@@@@@@@@@@@@@@++....################..",
" .++++++@@@@@@$$$$@@@@@@@@@@@@@@@@@@@@@@++....######%%%%######..",
" .++++++@@@@@@$$$$@@@@@@@@@@@@@@@@@@@@@@++....######%%%%######..",
" .++++++@@@@@@$$$$@@@@@@@@@@@@@@@@@@@@@@++....######%%%%######..",
" .++++++@@@@@@$$$$@@@@@@@@@@@@@@@@@@@@@@++....######%%%%######..",
" .++++++@@@@@@@@@@@@@@@@@@@@@@@@@@@@@@@@++....################..",
" .++++++@@@@@@@++@@@@@@@@@@@@@@@@@@@@@@@++....#######..#######..",
" .++++++@@@@@@@@@@@@@@@@@@@@@@@@@@@@@@@@++....################..",
" .++++++@@@@@@@@@@@@@@@@@@@@@@@@@@@@@@@@++....################..",
" .++++++@@@@@@@@@@@@@@@@@@@@@@@@@@@@@@@@++....################..",
"  +++++++@@@@@@@@@@@@@@@@@@@@@@@@@@@@@@@++....################..",
"   .....++++++++++++++++++++++++++++++++........................",
"    ......++++++++++++++++++++++++++++.........................."};
