/* XPM */
static char * player_punchr6_xpm[] = {
"64 64 16 1",
" 	c #38002C",
".	c #222A5C",
"+	c #37446E",
"@	c #006462",
"#	c #052C46",
"$	c #000000",
"%	c #800C53",
"&	c #AB1F65",
"*	c #E6336A",
"=	c #F96B80",
"-	c #CCAC68",
";	c #FFDBA5",
">	c #566A89",
",	c #CCE2E1",
"'	c #FF8142",
")	c #D22F1E",
"                                                                ",
"  ..........                ..    ..........                ..  ",
" .+@@@@@@@@@################@+.  .+@@@@@@@@@################@+. ",
" .@@@@@@@@@@+#############++@@.  .@@@@@@@@@@+#############++@@. ",
" .@@@@@@@@++#############+@@@@.  .@@@@@@@@++#############+@@@@. ",
" .@@@@@@@@+#############++@@@@.  .@@@@@@@@+#############++@@@@. ",
" .@@@@@@++#############+@@@@@@.  .@@@@@@++#############+@@@@@@. ",
" .@@@@@@+#############++@@@@@@+..+@@@@@@+##############+@@@@@@. ",
" .@@@@++++++#########+@@@@@@@@@@@@@@@@++############++++@@@@@@. ",
" .@@@@+#++++########++@@@@@@@@@@@@@@@@+###$$$%$$$###++++@@@@@@. ",
" .@@++##++++#######+@@@@@@@@@@@@@@@@++###%&&&&&%$###++++@@@@@@. ",
" .@@+###++++######++@@@@@@@@@@@@@@@@+###%%****&%$#++++++@@@@@@. ",
"  #+#############+@@@@@@@@@@@@@@@@++###%&****&%$$$$$...+@@@@@@. ",
"  #######  #####++@@@@@@@@@@@@@@@@+###$%&****&%%%%%%%..+@@@@@@. ",
"  #############+@@@@@@@@@@@@@@+#######$%&***===*****%$@@@@@@@@. ",
"  ############++@@@@@@@@@@@@@@#   ####%&****====****&%%@@@@@@@. ",
"  ###########+@@@@@@@@@@@@@@@@#   ###$&***=======****&%$@@@@@@. ",
"  ##########++@@@@@@@@@@@@@@@@#  ####$&**=-======*&&%%%$@@@@@@. ",
"  #########+@@@@@@@@@@@@@@@@++######$%&*==;;=*===*&%$$$@@@@@+#  ",
"  ########++@@@@**********@@+######$%%&*-;;;*******&%$@@@@@@+#  ",
"  #######+@@@@@***********++###  ##$%%%=;;;;==******&%@@@@++##  ",
"  ######++@@@*****@@@@@@@@+#**    #$$%%=;;;;;=*******&%$@@+###  ",
"  #####+@@@*****@@@@@@@@++####    ##$$%=;;;;;;==***&**%$++####  ",
"  ####++@*****@@@@@@@@@@+#####  * ###$%=;;;;;;;=**&%&&%$+#####  ",
"  ###+@@*****@@@@@@@@@++######   *###$%=;;;;;;;=***&&%$$######  ",
"  ##++@*****@@@@@@@@@@+#######   **##$%&;;;;;;;=****%$$#######  ",
"  #+@@@****@@@@@@@@@++#####          $$>-;;;;;;=****%$########  ",
"  #+@@@***@@@@@@@@@@+######         .$$+-------=****&%%#######  ",
" .@@@@***@@@@@@@@@++########   $$   +$.+>>>>>>>>&*&>&&%$######  ",
" .+@@@***@@@@@@@@@##########  $$$$ .+$+>>>>>>>>&&&>>&%%#######  ",
"  ...****@@@@@@@+. ####      $$$$$$ ..+>>>>>>>>*&>>>+$###       ",
"    ****@@@@@@@@.   ##      $$$$$$$$.+>>>>>>>>>>>>>+.$##        ",
"    ***.@@@@@@+#    ##      $$$$$$$$+>>>>>>>>>>>>>>+.$##        ",
"  ..***+@@@@@@+##  ####      $$$$$$$+>>>>>>>>>>>>>>+.$###   ..  ",
" .+@***@@@@@++################$$$$$$>>>>>>>>>>>>>>+..#######@+. ",
" .@@***@@@@@+#############+++# $$$$.>,,>>>>>>,,>>>+.######++@@. ",
" .@@***@@@++#############+@@@+.  $.--;,,>>>>>>>>>>+$#####+@@@@. ",
" .@@***@@@+#############++@@@@.  $+---;,->>>>>>>>>+$####++@@@@. ",
" .@@***@++#############+@@@@@@.  $+--;;;-&&&>>>>>+.$###+@@@@@@. ",
" .@@***@+#############++@@@@@@.  .+--;;;'))&>>>>>+.$##++@@@@@@. ",
" .@@***+#############+@@@@@@@@.  .@+-;;;-))&++++++.$#+@@@@@@@@. ",
" .@@@***############++@@@@@@@@+..+@$>---&&&%++++++.$++@@@@@@@@. ",
" .@@++***##########+@@@@@@@@@@@@@@@$$...++++++++++.$@@@@@@@@@@. ",
" .@@+#***#########++@@@@@@@@@@@@@@@@+#$$.+++++++++.$@@@@@@@@@@. ",
"  #+##***########+@@@@@@@@@@@@+...++##$.++++%%%&&&&%%@@@@@@@@@. ",
"  #####****#####++@@@@@@@@@@@@.   ###$%%%%%&)))''''')$@@@@@@@@. ",
"  #####****####+@@@@@@@@@@@@@@.   ###$%%%%%%)))''''')$@@@@@@@@. ",
"  #####*****##++@@@@@@@@@@@@@@.  **##$%%%%%%%$)''''')$@@@@@@@@. ",
"  ######*****+@@@@@@@@@@@@@@@@+#**#%.%%%%%%%$$%)'''')$@@@@@@@@. ",
"  #######*****@@@@@@@@@@@@@@@@+#*##$%%%%%%%%$+@$)''')%@@@@@@@@. ",
"  #########+*****@@@@@@@@@@@*+#####$%%%%%%%.@@@$)'''')%@@@@@+#  ",
"  #########+@*****@@@@@@@@@@*######$%%%%%%$$@@@$)'''''%$@@@@+#  ",
"  ######++++@@@@**********++#######$%%%%%%$$@@@$)'''''%$@@++##  ",
"  ######++++@@@@@*********+########$%%%%%%$$@@@$)''''')%@@+###  ",
"  ######++++@@@@@@@@@@@@++#########$%%%%%%.$@@@$%)''''))$+####  ",
"  ####++++++@@@@@@@@@@@@+###########.%%%%%%%$@@@%%))')))$#####  ",
"  ###+@@...+@@@@@@@@@@++#######  ####$%%%%%%$@@@@$))))))%$####  ",
"  ##++@@+..+@@@@@@@@@@+#######    ##+$%%%%%%$@@@@$)))))))%$###  ",
"  #+@@@@@@@@@@@@@@@@++########    #+@$%%%%%%$@@@@$%)))))))$###  ",
"  #+@@@@@@@@@@@@@@@@+#########    #+@$%%%%%%$@@@@@$%)))))%$###  ",
" .@@@@@@@@@@@@@@@@++##########   .@@$$%%%%%%$@@@@@+$%)&&&%.$##  ",
" .+@@@@@@@@@@@@@@@############   .+$$$$$$$$$$@@@@@##$.......$#  ",
"  ................                .$$$$$$$$$$.....  $$......$   ",
"                                   $$$$$$$$$$       $$......$   "};
