/* XPM */
static char * right_up_corner_xpm[] = {
"64 64 8 1",
" 	c #000000",
".	c #222A5C",
"+	c #37446E",
"@	c #38002C",
"#	c #566A89",
"$	c #8BABBF",
"%	c #F36A17",
"&	c #8C284A",
"                                                                ",
" .+++++++++++++++++++++++++++++++++++++++++++++++++++++++++++.@ ",
" +#$$$$$$$$$$$$$$$$$$$$$$$$$$$$$$$$$$$$$$$$$$$$$$$$$$$$$$$$##+. ",
" +$$$$$$$$$$$$$$$$$$$$$$$$$$$$$$$$$$$$$$$$$$$$$$$$$$$$$$$$$$#+. ",
"@#$$$$$$$$$$$$$$$$$$$$$$$$$$$$$$$$$$$$$$$$$$$$$$$$$$$$$$$$$#%.. ",
"@%#$$$$$$$$$$$$$$$$$$$$$$$$$$$$$$$$$$$$$$$$$$$$$$$$$$$$$$$#%%.@ ",
".%########################################################%%..@ ",
".%%######################################################%%...@ ",
"..%%%%%%%%%%%%%%%%%%%%%%%%%%%%%%%%%%%%%%%%%%%%%%%%%%%%%%%%....@ ",
"..%%%%%%%%%%%%%%%%%%%%%%%%%%%%%%%%%%%%%%%%%%%%%%%%%%%%%%......@ ",
"..%%%%%%%%%%%%%%%%%%%%%%%%%%%%%%%%%%%%%%%%%%%%%%%%%%%%%%......@ ",
"..%%%%%%%%%%%%%%%%%%%%%%%%%%%%%%%%%%%%%%%%%%%%%%%%%%%%%%......@ ",
"..%%%%%%####%%%%%%%%%%%%%%%%%%%%%%%%%%%%%%%%%%####%%%%%%......@ ",
"..%%%%%%####%%%%%%%%%%%%%%%%%%%%%%%%%%%%%%%%%%####%%%%%%......@ ",
"..%%%%%%####%%%%%%%%%%%%%%%%%%%%%%%%%%%%%%%%%%####%%%%%%......@ ",
"..%%%%%%####%%%%%%%%%%%%%%%%%%%%%%%%%%%%%%%%%%####%%%%%%......@ ",
"..%%%%%%%%%%%%%%%%%%%%%%%%%%%%%%%%%%%%%%%%%%%%%%%%%%%%%%......@ ",
"..%%%%%%%..%%%%%%%%%%%%%%%%%%%%%%%%%%%%%%%%%%%%..%%%%%%%......@ ",
"..%%%%%%%%%%%%%%%%%%%%%%%%%%%%%%%%%%%%%%%%%%%%%%%%%%%%%%......@ ",
"..%%%%%%%%%%%%%%%%%%%%%%%%%%%%%%%%%%%%%%%%%%%%%%%%%%%%%%......@ ",
"..%%%%%%%%%%%%%%%%%%%%%%%%%%%%%%%%%%%%%%%%%%%%%%%%%%%%%%......@ ",
"..%%%%%%%%%%%%%%%%%%%%%%%%%%%%%%%%%%%%%%%%%%%%%%%%%%%%%%......@ ",
"..%%%%%%%%%%%%%%%%%%%%%%%%%%%%%%%%%%%%%%%%%%%%%%%%%%%%%%......@ ",
"..%%%%%%%%%%%%%%%%%%%%%%%%%%%%%%%%%%%%%%%%%%%%%%%%%%%%%%......@ ",
"..%%%%%%%%%%%%%%%%%%%%%%%%%%%%%%%%%%%%%%%%%%%%%%%%%%%%%%......@ ",
"..%%%%%%%%%%%%%%%%%%%%%%%%%%%%%%%%%%%%%%%%%%%%%%%%%%%%%%......@ ",
"..%%%%%%%%%%%%%%%%%%%%%%%%%%%%%%%%%%%%%%%%%%%%%%%%%%%%%%......@ ",
"..%%%%%%%%%%%%%%%%%%%%%%%%%%%%%%%%%%%%%%%%%%%%%%%%%%%%%%......@ ",
"..%%%%%%%%%%%%%%%%%%%%%%%%%%%%%%%%%%%%%%%%%%%%%%%%%%%%%%......@ ",
"..%%%%%%%%%%%%%%%%%%%%%%%%%%%%%%%%%%%%%%%%%%%%%%%%%%%%%%......@ ",
"..%%%%%%%%%%%%%%%%%%%%%%%%%%%%%%%%%%%%%%%%%%%%%%%%%%%%%%......@ ",
"..%%%%%%%%%%%%%%%%%%%%%%%%%%%%%%%%%%%%%%%%%%%%%%%%%%%%%%......@ ",
"..%%%%%%%%%%%%%%%%%%%%%%%%%%%%%%%%%%%%%%%%%%%%%%%%%%%%%%......@ ",
"..%%%%%%%%%%%%%%%%%%%%%%%%%%%%%%%%%%%%%%%%%%%%%%%%%%%%%%......@ ",
"..%%%%%%%%%%%%%%%%%%%%%%%%%%%%%%%%%%%%%%%%%%%%%%%%%%%%%%......@ ",
"..%%%%%%%%%%%%%%%%%%%%%%%%%%%%%%%%%%%%%%%%%%%%%%%%%%%%%%......@ ",
"..%%%%%%%%%%%%%%%%%%%%%%%%%%%%%%%%%%%%%%%%%%%%%%%%%%%%%%......@ ",
"..%%%%%%%%%%%%%%%%%%%%%%%%%%%%%%%%%%%%%%%%%%%%%%%%%%%%%%......@ ",
"@.%%%%%%%%%%%%%%%%%%%%%%%%%%%%%%%%%%%%%%%%%%%%%%%%%%%%%%......@ ",
"@.%%%%%%%%%%%%%%%%%%%%%%%%%%%%%%%%%%%%%%%%%%%%%%%%%%%%%%......@ ",
"@@.....................%%%%%%%%%%%%%%%%%%%%%%%%%%%%%%%%%......@ ",
"@@......................%%%%%%%%%%%%%%%%%%%%%%%%%%%%%%%%......@ ",
"@@@@@@@@@@@@@@@@@@@@@...%%%%%%%%%%%%%%%%%%%%%%%%%%%%%%%%......@ ",
"@@@@@@@@@@@@@@@@@@@@@@..%%%%%%%%%%%%%%%%%%%%%%%%%%%%%%%%......@ ",
"@@@@@@@@@@@@@@@@@@@@@@..%%%%%%%%%%%%%%%%%%%%%%%%%%%%%%%%......@ ",
"@@@@@@@@@@@@@@@@@@@@@@..%%%%%%%%%%%%%%%%%%%%%%%%%%%%%%%%......@ ",
"@@&&&&&&&&&&&&&&&&@@@@..%%%%%%%%%%%%%%%%%%%%%%%%%%%%%%%%......@ ",
"@@&&&&&&&&&&&&&&&&@@@@..%%%%%%%%%%%%%%%%%%%%%%%%%%%%%%%%......@ ",
"@@&&&&&&&&&&&&&&&&@@@@..%%%%%%%%%%%%%%%%%%%%%%%%%%%%%%%%......@ ",
"@@&&&&&&&&&&&&&&&&@@@@..%%%%%%%%%%%%%%%%%%%%%%%%%%%%%%%%......@ ",
"@@&&&&&&&&&&&&&&&&@@@@..%%%%%%%%%%%%%%%%%%%%%%####%%%%%%......@ ",
"@@&&&&&&&&&&&&&&&&@@@@..%%%%%%%%%%%%%%%%%%%%%%####%%%%%%......@ ",
"@@&&&&&&++++&&&&&&@@@@..%%%%%%%%%%%%%%%%%%%%%%####%%%%%%......@ ",
"@@&&&&&&++++&&&&&&@@@@..%%%%%%%%%%%%%%%%%%%%%%####%%%%%%......@ ",
"@@&&&&&&++++&&&&&&@@@@..%%%%%%%%%%%%%%%%%%%%%%%%%%%%%%%%......@ ",
"@@&&&&&&++++&&&&&&@@@@..%%%%%%%%%%%%%%%%%%%%%%%..%%%%%%%......@ ",
"@@&&&&&&&&&&&&&&&&@@@@..%%%%%%%%%%%%%%%%%%%%%%%%%%%%%%%%......@ ",
"@@&&&&&&&@@&&&&&&&@@@@..%%%%%%%%%%%%%%%%%%%%%%%%%%%%%%%%......@ ",
"@@&&&&&&&&&&&&&&&&@@@@..%%%%%%%%%%%%%%%%%%%%%%%%%%%%%%%%......@ ",
"@@&&&&&&&&&&&&&&&&@@@@..%%%%%%%%%%%%%%%%%%%%%%%%%%%%%%%%......@ ",
"@@&&&&&&&&&&&&&&&&@@@@..%%%%%%%%%%%%%%%%%%%%%%%%%%%%%%%%......@ ",
"@@&&&&&&&&&&&&&&&&@@@@..%%%%%%%%%%%%%%%%%%%%%%%%%%%%%%%.......  ",
"@@@@@@@@@@@@@@@@@@@@@@@@................................@@@@@   ",
"@@@@@@@@@@@@@@@@@@@@@@@@@@......................@@@@..@@@@@@    "};
