/* XPM */
static char * right_down_corner_xpm[] = {
"64 64 7 1",
" 	c #38002C",
".	c #222A5C",
"+	c #000000",
"@	c #8C284A",
"#	c #F36A17",
"$	c #37446E",
"%	c #566A89",
"                          ......................    ..      ++++",
"                        ................................     +++",
"  @@@@@@@@@@@@@@@@    ..###############################.......++",
"  @@@@@@@@@@@@@@@@    ..################################...... +",
"  @@@@@@@@@@@@@@@@    ..################################...... +",
"  @@@@@@@@@@@@@@@@    ..################################...... +",
"  @@@@@@@@@@@@@@@@    ..################################...... +",
"  @@@@@@@@@@@@@@@@    ..################################...... +",
"  @@@@@@$$$$@@@@@@    ..######################%%%%######...... +",
"  @@@@@@$$$$@@@@@@    ..######################%%%%######...... +",
"  @@@@@@$$$$@@@@@@    ..######################%%%%######...... +",
"  @@@@@@$$$$@@@@@@    ..######################%%%%######...... +",
"  @@@@@@@@@@@@@@@@    ..################################...... +",
"  @@@@@@@  @@@@@@@    ..#######################..#######...... +",
"  @@@@@@@@@@@@@@@@    ..################################...... +",
"  @@@@@@@@@@@@@@@@    ..################################...... +",
"  @@@@@@@@@@@@@@@@    ..################################...... +",
"  @@@@@@@@@@@@@@@@    ..################################...... +",
"                      ..################################...... +",
"                      ..################################...... +",
"                      ..################################...... +",
"                     ...################################...... +",
"  ......................################################...... +",
"  .....................#################################...... +",
" .######################################################...... +",
" .######################################################...... +",
"..######################################################...... +",
"..######################################################...... +",
"..######################################################...... +",
"..######################################################...... +",
"..######################################################...... +",
"..######################################################...... +",
"..######################################################...... +",
"..######################################################...... +",
"..######################################################...... +",
"..######################################################...... +",
"..######################################################...... +",
"..######################################################...... +",
"..######################################################...... +",
"..######################################################...... +",
"..######################################################...... +",
"..######################################################...... +",
"..######################################################...... +",
"..######################################################...... +",
"..######################################################...... +",
"..######################################################...... +",
" .######%%%%##################################%%%%######...... +",
" .######%%%%##################################%%%%######...... +",
" .######%%%%##################################%%%%######...... +",
" .######%%%%##################################%%%%######...... +",
"..######################################################...... +",
"..#######..####################################..#######...... +",
" .######################################################...... +",
" .######################################################...... +",
" .######################################################...... +",
" .######################################################...... +",
"  ............................................................ +",
"  ............................................................ +",
"                                                         ..... +",
"                                                          .... +",
"+                                                          ... +",
"++                                                          ..++",
"+++++++++++++++++++++++++++++++++++++++++++++++++++++++++++  +++",
"++++++++++++++++++++++++++++++++++++++++++++++++++++++++++++++++"};
